 <svg  version="1.0" xmlns="http://www.w3.org/2000/svg"  width="50.000000pt" height="33.000000pt" viewBox="0 0 50.000000 33.000000"  preserveAspectRatio="xMidYMid meet">  <g transform="translate(0.000000,33.000000) scale(0.100000,-0.100000)" fill="#eec144" stroke="none"> <path d="M107 181 c-91 -159 -91 -161 -34 -161 l45 0 58 101 58 102 -21 36 c-11 19 -24 36 -29 38 -5 1 -40 -51 -77 -116z m89 55 c3 -8 -16 -52 -43 -100 -39 -69 -52 -86 -71 -86 l-24 0 21 32 c12 18 38 63 58 101 38 68 49 78 59 53z"/> <path d="M301 266 c-12 -18 -21 -37 -21 -42 0 -4 25 -52 56 -106 l56 -98 44 0 c27 0 44 5 44 12 0 15 -143 268 -152 268 -3 0 -16 -15 -27 -34z m90 -116 c52 -91 55 -100 35 -100 -16 0 -32 20 -69 85 -43 76 -53 115 -30 115 4 0 33 -45 64 -100z"/> <path d="M218 121 c-16 -27 -28 -54 -28 -60 0 -7 24 -11 65 -11 41 0 65 4 65 11 0 18 -54 109 -65 109 -5 0 -22 -22 -37 -49z m62 -38 c0 -7 -11 -13 -25 -13 -27 0 -31 10 -14 42 11 21 12 21 25 3 8 -10 14 -25 14 -32z"/> </g> </svg> 